<?xml version="1.0" encoding="utf-8"?>
<!-- Generator: Adobe Illustrator 23.0.1, SVG Export Plug-In . SVG Version: 6.00 Build 0)  -->
<svg version="1.1" id="Layer_1" xmlns="http://www.w3.org/2000/svg" xmlns:xlink="http://www.w3.org/1999/xlink" x="0px" y="0px"
	 viewBox="0 0 1920 1080" style="enable-background:new 0 0 1920 1080;" xml:space="preserve">
<style type="text/css">
	.st0{fill:#D81F26;}
</style>
<g>
	<g>
		<path class="st0" d="M414.06,274.73c15.84,0,31.68,0,47.51,0c12.16,46.9,24.42,93.77,36.78,140.62c0.28-0.01,0.41-0.02,0.69-0.03
			c0.02-46.86,0.04-93.73,0.06-140.59c11.25,0,22.49,0,33.74,0c-0.04,77.58-0.08,155.17-0.12,232.75
			c-12.96,0.78-25.92,1.61-38.88,2.47c-15.28-56.91-30.41-113.86-45.37-170.86c-0.28,0.01-0.41,0.01-0.69,0.01
			c-0.01,58.02-0.02,116.05-0.03,174.07c-11.23,0.84-22.46,1.69-33.7,2.56C414.06,435.4,414.06,355.07,414.06,274.73z"/>
		<path class="st0" d="M573.81,274.73c34.43,0,68.86,0,103.29,0c-0.01,10.74-0.01,21.49-0.02,32.23
			c-21.81,0.12-43.61,0.26-65.42,0.41c-0.01,20.13-0.03,40.25-0.04,60.38c17.33-0.34,34.66-0.65,51.99-0.94
			c-0.01,10.77-0.01,21.54-0.02,32.31c-17.33,0.4-34.66,0.82-51.99,1.27c-0.02,23.39-0.03,46.78-0.05,70.17
			c21.8-0.89,43.61-1.7,65.42-2.44c-0.01,10.74-0.01,21.49-0.02,32.23c-34.44,1.36-68.87,2.96-103.29,4.8
			C573.72,428.33,573.76,351.53,573.81,274.73z"/>
		<path class="st0" d="M740.8,274.73c17.1,0,34.2,0,51.3,0c13.01,73.83,26.08,147.65,39.18,221.46c-12.63,0.19-25.27,0.42-37.9,0.68
			c-2.29-14.66-4.58-29.33-6.87-43.99c0,0.25,0,0.38,0,0.64c-14.35,0.26-28.71,0.55-43.06,0.87c-2.31,14.64-4.61,29.28-6.91,43.92
			c-11.71,0.35-23.42,0.72-35.13,1.13C714.47,424.52,727.6,349.62,740.8,274.73z M782.05,423.41
			c-5.62-36.62-11.22-73.23-16.82-109.85c-0.28,0-0.41,0-0.69,0c-5.54,36.81-11.07,73.62-16.59,110.43
			C759.31,423.78,770.68,423.59,782.05,423.41z"/>
		<path class="st0" d="M876.1,306.29c-13.2,0.02-26.4,0.04-39.6,0.06c0-10.54,0.01-21.08,0.01-31.63c39.02,0,78.04,0,117.06,0
			c0,10.51,0,21.02,0,31.54c-13.2-0.01-26.4-0.01-39.6,0c0,63.07-0.01,126.13-0.01,189.2c-12.63,0.03-25.27,0.1-37.9,0.21
			C876.08,432.54,876.09,369.41,876.1,306.29z"/>
		<path class="st0" d="M984.57,274.73c33.4,0,66.8,0,100.19,0c0.01,10.6,0.01,21.19,0.02,31.79c-20.78-0.07-41.55-0.12-62.33-0.17
			c0.01,20.55,0.01,41.11,0.02,61.66c16.3,0.1,32.6,0.22,48.91,0.36c0,10.58,0.01,21.16,0.01,31.75c-16.3-0.2-32.61-0.36-48.91-0.49
			c0.01,32.15,0.02,64.3,0.03,96.44c-12.63-0.18-25.27-0.32-37.9-0.42C984.59,422.01,984.58,348.37,984.57,274.73z"/>
		<path class="st0" d="M1115.75,274.73c12.62,0,25.25,0,37.87,0c0.04,64.14,0.08,128.28,0.12,192.41
			c20.78,0.62,41.56,1.31,62.33,2.06c0.01,10.8,0.01,21.61,0.02,32.41c-33.4-1.42-66.81-2.61-100.22-3.58
			C1115.83,423.6,1115.79,349.16,1115.75,274.73z"/>
		<path class="st0" d="M1246.93,274.73c12.62,0,25.25,0,37.87,0c0.05,76.74,0.1,153.49,0.14,230.23
			c-12.62-0.68-25.24-1.32-37.87-1.93C1247.03,426.93,1246.98,350.83,1246.93,274.73z"/>
		<path class="st0" d="M1359.22,389.37c-13.77-38.26-27.68-76.48-41.71-114.65c13.31,0,26.63,0,39.94,0
			c8.55,25.41,17.05,50.83,25.5,76.27c0.28,0.01,0.41,0.01,0.69,0.02c8.76-25.41,17.48-50.84,26.14-76.29c11.94,0,23.87,0,35.81,0
			c-13.74,38.76-27.62,77.48-41.63,116.15c14.74,41.56,29.31,83.18,43.7,124.87c-13.29-1.05-26.59-2.05-39.88-3.02
			c-9.12-28.1-18.3-56.17-27.54-84.22c-0.28-0.01-0.41-0.02-0.69-0.03c-9.34,26.82-18.73,53.62-28.18,80.4
			c-11.93-0.76-23.86-1.49-35.79-2.19C1330.24,467.62,1344.79,428.52,1359.22,389.37z"/>
	</g>
</g>
</svg>
